<svg viewBox="0 0 600 340" width="600" height="340" xmlns="http://www.w3.org/2000/svg">
  <rect width="600" height="340" fill="#00171f"/>
  <rect width="600" height="50" fill="#003459"/>
  <circle cx="22" cy="25" r="9" fill="#D21034"/>
  <text x="38" y="30" fill="#ffffff" font-family="system-ui,sans-serif" font-size="15" font-weight="700">Haiti Advertising</text>
  <text x="196" y="30" fill="#007ea7" font-family="system-ui,sans-serif" font-size="12">Connect · Discover · Promote</text>
  <rect x="496" y="13" width="88" height="24" rx="12" fill="#D21034" fill-opacity="0.15"/>
  <circle cx="510" cy="25" r="4" fill="#D21034"/>
  <text x="520" y="29" fill="#D21034" font-family="system-ui,sans-serif" font-size="11">Multi-platform</text>
  <rect x="16" y="58" width="178" height="60" rx="8" fill="#0a2535"/>
  <text x="26" y="85" fill="#ffffff" font-family="system-ui,sans-serif" font-size="22" font-weight="700">8</text>
  <text x="26" y="108" fill="#ffffff" fill-opacity="0.45" font-family="system-ui,sans-serif" font-size="11">Events listed</text>
  <rect x="210" y="58" width="178" height="60" rx="8" fill="#0a2535"/>
  <text x="220" y="85" fill="#ffffff" font-family="system-ui,sans-serif" font-size="22" font-weight="700">6</text>
  <text x="220" y="108" fill="#ffffff" fill-opacity="0.45" font-family="system-ui,sans-serif" font-size="11">Cities covered</text>
  <rect x="404" y="58" width="178" height="60" rx="8" fill="#0a2535"/>
  <text x="414" y="85" fill="#ffffff" font-family="system-ui,sans-serif" font-size="22" font-weight="700">4+</text>
  <text x="414" y="108" fill="#ffffff" fill-opacity="0.45" font-family="system-ui,sans-serif" font-size="11">Social platforms</text>
  <text x="16" y="140" fill="#ffffff" fill-opacity="0.4" font-family="system-ui,sans-serif" font-size="10" letter-spacing="1.5">UPCOMING EVENTS NEAR YOU</text>
  <rect x="16" y="148" width="178" height="118" rx="10" fill="#0a2535"/>
  <rect x="16" y="148" width="178" height="40" rx="10" fill="#D21034" fill-opacity="0.2"/>
  <rect x="16" y="168" width="178" height="20" fill="#D21034" fill-opacity="0.2"/>
  <text x="26" y="173" fill="#D21034" font-family="system-ui,sans-serif" font-size="10" font-weight="600">Jul 15 · Miami, FL</text>
  <text x="26" y="200" fill="#ffffff" font-family="system-ui,sans-serif" font-size="12" font-weight="600">Community BBQ</text>
  <text x="26" y="218" fill="#ffffff" fill-opacity="0.5" font-family="system-ui,sans-serif" font-size="11">Miami, Florida</text>
  <rect x="26" y="234" width="36" height="18" rx="9" fill="#00a8e8" fill-opacity="0.2"/>
  <text x="32" y="247" fill="#00a8e8" font-family="system-ui,sans-serif" font-size="11" font-weight="600">$55</text>
  <rect x="210" y="148" width="178" height="118" rx="10" fill="#0a2535"/>
  <rect x="210" y="148" width="178" height="40" rx="10" fill="#D21034" fill-opacity="0.2"/>
  <rect x="210" y="168" width="178" height="20" fill="#D21034" fill-opacity="0.2"/>
  <text x="220" y="173" fill="#D21034" font-family="system-ui,sans-serif" font-size="10" font-weight="600">Aug 10 · New York, NY</text>
  <text x="220" y="200" fill="#ffffff" font-family="system-ui,sans-serif" font-size="12" font-weight="600">Cultural Celebration</text>
  <text x="220" y="218" fill="#ffffff" fill-opacity="0.5" font-family="system-ui,sans-serif" font-size="11">New York City</text>
  <rect x="220" y="234" width="36" height="18" rx="9" fill="#00a8e8" fill-opacity="0.2"/>
  <text x="226" y="247" fill="#00a8e8" font-family="system-ui,sans-serif" font-size="11" font-weight="600">$30</text>
  <rect x="404" y="148" width="178" height="118" rx="10" fill="#0a2535"/>
  <rect x="404" y="148" width="178" height="40" rx="10" fill="#D21034" fill-opacity="0.2"/>
  <rect x="404" y="168" width="178" height="20" fill="#D21034" fill-opacity="0.2"/>
  <text x="414" y="173" fill="#D21034" font-family="system-ui,sans-serif" font-size="10" font-weight="600">Sep 20 · Boston, MA</text>
  <text x="414" y="200" fill="#ffffff" font-family="system-ui,sans-serif" font-size="12" font-weight="600">Business Meetup</text>
  <text x="414" y="218" fill="#ffffff" fill-opacity="0.5" font-family="system-ui,sans-serif" font-size="11">Boston, Massachusetts</text>
  <rect x="414" y="234" width="36" height="18" rx="9" fill="#00a8e8" fill-opacity="0.2"/>
  <text x="420" y="247" fill="#00a8e8" font-family="system-ui,sans-serif" font-size="11" font-weight="600">$65</text>
  <text x="16" y="286" fill="#ffffff" fill-opacity="0.4" font-family="system-ui,sans-serif" font-size="10" letter-spacing="1.5">CROSS-POSTS TO</text>
  <rect x="16" y="293" width="68" height="16" rx="8" fill="#1877F2" fill-opacity="0.25"/>
  <text x="24" y="305" fill="#1877F2" font-family="system-ui,sans-serif" font-size="10">Facebook</text>
  <rect x="92" y="293" width="66" height="16" rx="8" fill="#E1306C" fill-opacity="0.25"/>
  <text x="100" y="305" fill="#E1306C" font-family="system-ui,sans-serif" font-size="10">Instagram</text>
  <rect x="166" y="293" width="52" height="16" rx="8" fill="#69C9D0" fill-opacity="0.25"/>
  <text x="174" y="305" fill="#69C9D0" font-family="system-ui,sans-serif" font-size="10">TikTok</text>
  <rect x="226" y="293" width="54" height="16" rx="8" fill="#ffffff" fill-opacity="0.1"/>
  <text x="234" y="305" fill="#ffffff" fill-opacity="0.5" font-family="system-ui,sans-serif" font-size="10">Twitter</text>
  <rect x="290" y="293" width="52" height="16" rx="8" fill="#00a8e8" fill-opacity="0.2"/>
  <text x="296" y="305" fill="#00a8e8" font-family="system-ui,sans-serif" font-size="10">+ SMS</text>
  <rect width="600" height="34" y="306" fill="#041824"/>
  <rect x="16" y="316" width="54" height="16" rx="8" fill="#003459"/>
  <text x="24" y="328" fill="#007ea7" font-family="system-ui,sans-serif" font-size="10">Next.js</text>
  <rect x="78" y="316" width="60" height="16" rx="8" fill="#003459"/>
  <text x="86" y="328" fill="#007ea7" font-family="system-ui,sans-serif" font-size="10">Clerk Auth</text>
  <rect x="146" y="316" width="60" height="16" rx="8" fill="#003459"/>
  <text x="154" y="328" fill="#007ea7" font-family="system-ui,sans-serif" font-size="10">Supabase</text>
  <rect x="214" y="316" width="50" height="16" rx="8" fill="#003459"/>
  <text x="222" y="328" fill="#007ea7" font-family="system-ui,sans-serif" font-size="10">Twilio</text>
  <rect x="272" y="316" width="60" height="16" rx="8" fill="#003459"/>
  <text x="280" y="328" fill="#007ea7" font-family="system-ui,sans-serif" font-size="10">Stripe</text>
</svg>
