<svg viewBox="0 0 600 340" width="600" height="340" xmlns="http://www.w3.org/2000/svg">
  <rect width="600" height="340" fill="#00171f"/>
  <rect width="600" height="50" fill="#003459"/>
  <circle cx="22" cy="25" r="9" fill="#00a8e8"/>
  <text x="38" y="30" fill="#ffffff" font-family="system-ui,sans-serif" font-size="15" font-weight="700">Tidywaro</text>
  <text x="140" y="30" fill="#007ea7" font-family="system-ui,sans-serif" font-size="12">AI Wardrobe Manager</text>
  <rect x="488" y="13" width="98" height="24" rx="12" fill="#00a8e8" fill-opacity="0.15"/>
  <circle cx="502" cy="25" r="4" fill="#00a8e8"/>
  <text x="512" y="29" fill="#00a8e8" font-family="system-ui,sans-serif" font-size="11">AI Try-On</text>
  <text x="16" y="70" fill="#ffffff" fill-opacity="0.4" font-family="system-ui,sans-serif" font-size="10" letter-spacing="1.5">MY WARDROBE</text>
  <rect x="16" y="78" width="80" height="74" rx="8" fill="#0a2535"/>
  <rect x="24" y="86" width="64" height="58" rx="5" fill="#3d6e9e"/>
  <rect x="106" y="78" width="80" height="74" rx="8" fill="#0a2535"/>
  <rect x="114" y="86" width="64" height="58" rx="5" fill="#2c3e55"/>
  <rect x="196" y="78" width="80" height="74" rx="8" fill="#0a2535"/>
  <rect x="204" y="86" width="64" height="58" rx="5" fill="#4a7d72"/>
  <rect x="16" y="162" width="80" height="74" rx="8" fill="#0a2535"/>
  <rect x="24" y="170" width="64" height="58" rx="5" fill="#c4a882"/>
  <rect x="106" y="162" width="80" height="74" rx="8" fill="#0a2535"/>
  <rect x="114" y="170" width="64" height="58" rx="5" fill="#5c3d5c"/>
  <rect x="196" y="162" width="80" height="74" rx="8" fill="#0a2535"/>
  <rect x="204" y="170" width="64" height="58" rx="5" fill="#7d3f3f"/>
  <text x="16" y="255" fill="#ffffff" fill-opacity="0.35" font-family="system-ui,sans-serif" font-size="11">+78 items</text>
  <line x1="292" y1="58" x2="292" y2="298" stroke="#003459" stroke-width="1"/>
  <text x="304" y="70" fill="#ffffff" fill-opacity="0.4" font-family="system-ui,sans-serif" font-size="10" letter-spacing="1.5">OUTFIT SUGGESTION</text>
  <rect x="304" y="78" width="280" height="70" rx="10" fill="#0a2535"/>
  <rect x="314" y="88" width="52" height="50" rx="6" fill="#3d6e9e"/>
  <text x="376" y="110" fill="#ffffff" font-family="system-ui,sans-serif" font-size="13" font-weight="600">Navy Tech Jacket</text>
  <text x="376" y="127" fill="#ffffff" fill-opacity="0.45" font-family="system-ui,sans-serif" font-size="11">Formal · Tommy H.</text>
  <rect x="304" y="158" width="280" height="70" rx="10" fill="#0a2535"/>
  <rect x="314" y="168" width="52" height="50" rx="6" fill="#c4a882"/>
  <text x="376" y="190" fill="#ffffff" font-family="system-ui,sans-serif" font-size="13" font-weight="600">Slim Chinos</text>
  <text x="376" y="207" fill="#ffffff" fill-opacity="0.45" font-family="system-ui,sans-serif" font-size="11">Khaki · Casual</text>
  <rect x="304" y="238" width="280" height="50" rx="10" fill="#041824"/>
  <rect x="316" y="252" width="256" height="10" rx="5" fill="#001a2b"/>
  <rect x="316" y="252" width="226" height="10" rx="5" fill="#00a8e8" fill-opacity="0.5"/>
  <text x="316" y="276" fill="#00a8e8" font-family="system-ui,sans-serif" font-size="12" font-weight="600">Match score: 88%</text>
  <rect width="600" height="34" y="306" fill="#041824"/>
  <rect x="16" y="316" width="94" height="16" rx="8" fill="#003459"/>
  <text x="26" y="328" fill="#007ea7" font-family="system-ui,sans-serif" font-size="10">React Native</text>
  <rect x="118" y="316" width="40" height="16" rx="8" fill="#003459"/>
  <text x="128" y="328" fill="#007ea7" font-family="system-ui,sans-serif" font-size="10">Expo</text>
  <rect x="166" y="316" width="60" height="16" rx="8" fill="#003459"/>
  <text x="174" y="328" fill="#007ea7" font-family="system-ui,sans-serif" font-size="10">Supabase</text>
  <rect x="234" y="316" width="82" height="16" rx="8" fill="#003459"/>
  <text x="242" y="328" fill="#007ea7" font-family="system-ui,sans-serif" font-size="10">RevenueCat</text>
  <rect x="324" y="316" width="52" height="16" rx="8" fill="#003459"/>
  <text x="332" y="328" fill="#007ea7" font-family="system-ui,sans-serif" font-size="10">Fashn.ai</text>
</svg>
